<svg xmlns="http://www.w3.org/2000/svg" viewBox="0 0 1080 1080">
  <title>synthea_logo_final</title>
  <g id="Background">
    <rect  fill="#fff" width="1080" height="1078.5"/>
  </g>
  <g id="Paths">
    <path id="InnerRing3_PathReference" stroke-width="38px" fill="none" stroke="#275779" stroke-miterlimit="10" d="M548,1026c19.61-22.87,247.68-377.49,239.11-505.29-12.16-181.52-234.67-261.52-366.9-193.13-124.11,64.19-210.73,335.52-251.44,503l-.17,0S147,891,138.88,934c24.12,49,104,95,144.08,114s143,12,143,12,39,3,65-8S528.39,1048.87,548,1026Z" transform="translate(0 0)"/>
    <path id="InnerRing3_Path3" stroke-width="38px" fill="none" stroke="#275779" stroke-miterlimit="10" d="M548,1026c19.61-22.87,247.68-377.49,239.11-505.29-12.16-181.52-234.67-261.52-366.9-193.13C347.54,365.17,287.28,474.79,242,592c-32,82.94-56.36,169.19-73.23,238.6l-.17,0S147,891,138.88,934c24.12,49,104,95,144.08,114s143,12,143,12,39,3,65-8S528.39,1048.87,548,1026Z" transform="translate(0 0)"/>
    <path id="InnerRing3_Path2" stroke-width="38px" fill="none" stroke="#275779" stroke-miterlimit="10" d="M531,303c-39.17-.52-78.11,7.67-110.78,24.57-124.11,64.19-210.73,335.52-251.44,503l-.17,0S147,891,138.88,934c24.12,49,104,95,144.08,114s143,12,143,12,39,3,65-8,37.39-3.13,57-26S795.68,648.51,787.11,520.71C778,384,649.57,304.92,530.25,303.35" transform="translate(0 0)"/>
    <path id="InnerRing3_Path1" stroke-width="38px" fill="none" stroke="#275779" stroke-miterlimit="10" d="M726,718c37.53-78.8,64.2-151.25,61.11-197.29-12.16-181.52-234.67-261.52-366.9-193.13-124.11,64.19-210.73,335.52-251.44,503l-.17,0S147,891,138.88,934c24.12,49,104,95,144.08,114s143,12,143,12,39,3,65-8,37.39-3.13,57-26c12.54-14.63,110.41-165,177-305" transform="translate(0 0)"/>
    <path id="InnerRing4_PathReference" stroke-width="38px" fill="none" stroke="#275779" stroke-miterlimit="10" d="M817.29,789.07C869.87,671.23,921,547.14,893.91,441.38c-20.5-79.93-82.83-167.16-173.44-221.07-67.53-40.18-212.43-68-322-12.23C301.14,257.63,223.55,359.29,171,477.14c-50.14,109.54-54,139.41-69.26,245.63,0,0-109.25,236.15,0,287.42S286,1058,286,1058l111-16.05s145.49,31.5,207,6S686,985,686,985,764.71,906.92,817.29,789.07Z" transform="translate(0 0)"/>
    <path id="InnerRing4_Path3" stroke-width="38px" fill="none" stroke="#275779" stroke-miterlimit="10" d="M481,181.53c-28.49,4.77-56.5,13.3-82.51,26.55C301.14,257.63,223.55,359.29,171,477.14c-50.14,109.54-54,139.41-69.26,245.63,0,0-109.25,236.15,0,287.42S286,1058,286,1058l111-16.05s145.49,31.5,207,6S686,985,686,985s78.72-78.08,131.3-195.93S921,547.14,893.91,441.38c-20.5-79.93-82.83-167.16-173.44-221.07-51.5-30.64-148-54.1-239.49-38.78" transform="translate(0 0)"/>
    <path id="InnerRing4_Path2" stroke-width="38px" fill="none" stroke="#275779" stroke-miterlimit="10" d="M567.3,177.61c-56.16-3.73-116.52,3.84-168.84,30.48C301.14,257.63,223.55,359.29,171,477.14c-50.14,109.54-54,139.41-69.26,245.63,0,0-109.25,236.15,0,287.42S286,1058,286,1058l111-16.05s145.49,31.5,207,6S686,985,686,985s78.72-78.08,131.3-195.93S921,547.14,893.91,441.38c-20.5-79.93-82.83-167.16-173.44-221.07-35.29-21-91.7-38.62-153.16-42.7" transform="translate(0 0)"/>
    <path id="InnerRing4_Path1" stroke-width="38px" fill="none" stroke="#275779" stroke-miterlimit="10" d="M898.33,462.92q-1.71-10.88-4.43-21.54c-20.5-79.93-82.83-167.16-173.44-221.07-67.53-40.18-212.43-68-322-12.23C301.14,257.63,223.55,359.29,171,477.14c-50.14,109.54-54,139.41-69.26,245.63,0,0-109.25,236.15,0,287.42S286,1058,286,1058l111-16.05s145.49,31.5,207,6S686,985,686,985s78.72-78.08,131.3-195.93c49.05-109.93,96.86-225.31,81-326.16" transform="translate(0 0)"/>
  </g>
  <g id="InnerRings">
    <circle id="InnerRing1"  stroke-width="21px" fill="none" stroke="#275779" stroke-miterlimit="10" cx="540" cy="540" r="33.29"/>
    <circle id="InnerRing2"  stroke-width="38px" fill="none" stroke="#275779" stroke-miterlimit="10" cx="540" cy="540" r="129.92"/>
    <path id="InnerRing3" stroke-width="38px" fill="none" stroke="#275779" stroke-miterlimit="10" d="M548,1026c19.61-22.87,247.68-377.49,239.11-505.29-12.16-181.52-234.67-261.52-366.9-193.13-124.11,64.19-210.73,335.52-251.44,503l-.17,0S147,891,138.88,934c24.12,49,104,95,144.08,114s143,12,143,12,39,3,65-8S528.39,1048.87,548,1026Z" transform="translate(0 0)"/>
    <path id="InnerRing4" stroke-width="38px" fill="none" stroke="#275779" stroke-miterlimit="10" d="M686.77,983.54c54.75-66.26,77.95-76.63,130.53-194.47S921,547.14,893.91,441.38c-20.5-79.93-82.83-167.16-173.44-221.07-67.53-40.18-212.43-68-322-12.23C301.14,257.63,223.55,359.29,171,477.14c-50.14,109.54-54,139.41-69.26,245.63,0,0-109.25,236.15,0,287.42s136.25,0,136.25,0l159,31.77s145.49,31.5,207,6,82.82-64.4,82.82-64.4h0" transform="translate(0 0)"/>
  </g>

  <g id="InnerDongles">
     <g id="InnerRing3_Dongle1b" transform="rotate(90, 0, 0)">
      <rect fill="#fff" x="-70" y="-120" width="100" height="130"/>
      <animateMotion path='M726,718c37.53-78.8,64.2-151.25,61.11-197.29-12.16-181.52-234.67-261.52-366.9-193.13-124.11,64.19-210.73,335.52-251.44,503l-.17,0S147,891,138.88,934c24.12,49,104,95,144.08,114s143,12,143,12,39,3,65-8,37.39-3.13,57-26c12.54-14.63,110.41-165,177-305' dur="3s" repeatCount="indefinite" rotate="auto"/>
    </g>
    <g id="InnerRing3_Dongle1a" transform="rotate(90, 0, 0)">
      <polygon fill="#275779" points="977.5 976 934.2 976 955.85 938.5 977.5 901 999.15 938.5 1020.8 976 977.5 976" transform="translate(-980, -950)"/>
      <animateMotion path='M726,718c37.53-78.8,64.2-151.25,61.11-197.29-12.16-181.52-234.67-261.52-366.9-193.13-124.11,64.19-210.73,335.52-251.44,503l-.17,0S147,891,138.88,934c24.12,49,104,95,144.08,114s143,12,143,12,39,3,65-8,37.39-3.13,57-26c12.54-14.63,110.41-165,177-305' dur="3s" repeatCount="indefinite" rotate="auto"/>
    </g>

    <g id="InnerRing3_Dongle2b" transform="rotate(90, 0, 0)">
      <rect fill="#fff" x="-70" y="-120" width="100" height="100"/>
      <animateMotion path='M531,303c-39.17-.52-78.11,7.67-110.78,24.57-124.11,64.19-210.73,335.52-251.44,503l-.17,0S147,891,138.88,934c24.12,49,104,95,144.08,114s143,12,143,12,39,3,65-8,37.39-3.13,57-26S795.68,648.51,787.11,520.71C778,384,649.57,304.92,530.25,303.35' dur="3s" repeatCount="indefinite" rotate="auto"/>
    </g>
    <g id="InnerRing3_Dongle2a" transform="rotate(90, 0, 0)">
      <circle stroke-width="21px" stroke="#275779" stroke-miterlimit="10" r="33" transform="translate(0, 0)" fill="#fff"/>
      <animateMotion path='M531,303c-39.17-.52-78.11,7.67-110.78,24.57-124.11,64.19-210.73,335.52-251.44,503l-.17,0S147,891,138.88,934c24.12,49,104,95,144.08,114s143,12,143,12,39,3,65-8,37.39-3.13,57-26S795.68,648.51,787.11,520.71C778,384,649.57,304.92,530.25,303.35' dur="3s" repeatCount="indefinite" rotate="auto"/>
    </g>

    <g id="InnerRing3_Dongle3b" transform="rotate(90, 0, 0)">
      <rect fill="#fff" x="-70" y="-120" width="100" height="100"/>
      <animateMotion path='M242,592c-32,82.94-56.36,169.19-73.23,238.6l-.17,0S147,891,138.88,934c24.12,49,104,95,144.08,114s143,12,143,12,39,3,65-8,37.39-3.13,57-26S795.68,648.51,787.11,520.71c-12.16-181.52-234.67-261.52-366.9-193.13C347.54,365.17,287.28,474.79,242,592' dur="3s" repeatCount="indefinite" rotate="auto"/>
    </g>
    <g id="InnerRing3_Dongle3a" transform="rotate(90, 0, 0)">
      <circle stroke-width="21px" stroke="#275779" stroke-miterlimit="10" r="33" transform="translate(0, 0)" fill="#fff"/>
      <animateMotion path='M242,592c-32,82.94-56.36,169.19-73.23,238.6l-.17,0S147,891,138.88,934c24.12,49,104,95,144.08,114s143,12,143,12,39,3,65-8,37.39-3.13,57-26S795.68,648.51,787.11,520.71c-12.16-181.52-234.67-261.52-366.9-193.13C347.54,365.17,287.28,474.79,242,592' dur="3s" repeatCount="indefinite" rotate="auto"/>
    </g>

    <g id="InnerRing4_Dongle1b" transform="rotate(90, 0, 0)">
      <rect fill="#fff" x="-70" y="-120" width="100" height="100"/>
      <animateMotion path='M898.33,462.92q-1.71-10.88-4.43-21.54c-20.5-79.93-82.83-167.16-173.44-221.07-67.53-40.18-212.43-68-322-12.23C301.14,257.63,223.55,359.29,171,477.14c-50.14,109.54-54,139.41-69.26,245.63,0,0-109.25,236.15,0,287.42S286,1058,286,1058l111-16.05s145.49,31.5,207,6S686,985,686,985s78.72-78.08,131.3-195.93c49.05-109.93,96.86-225.31,81-326.16' dur="3s" repeatCount="indefinite" rotate="auto"/>
    </g>
    <g id="InnerRing3_Dongle1a" transform="rotate(90, 0, 0)">
      <circle stroke-width="21px" stroke="#275779" stroke-miterlimit="10" r="33" transform="translate(0, 0)" fill="#fff"/>
      <animateMotion path='M898.33,462.92q-1.71-10.88-4.43-21.54c-20.5-79.93-82.83-167.16-173.44-221.07-67.53-40.18-212.43-68-322-12.23C301.14,257.63,223.55,359.29,171,477.14c-50.14,109.54-54,139.41-69.26,245.63,0,0-109.25,236.15,0,287.42S286,1058,286,1058l111-16.05s145.49,31.5,207,6S686,985,686,985s78.72-78.08,131.3-195.93c49.05-109.93,96.86-225.31,81-326.16' dur="3s" repeatCount="indefinite" rotate="auto"/>
    </g>
     <g id="InnerRing4_Dongle2b" transform="rotate(90, 0, 0)">
      <rect fill="#fff" x="-70" y="-120" width="100" height="130"/>
      <animateMotion path='M567.3,177.61c-56.16-3.73-116.52,3.84-168.84,30.48C301.14,257.63,223.55,359.29,171,477.14c-50.14,109.54-54,139.41-69.26,245.63,0,0-109.25,236.15,0,287.42S286,1058,286,1058l111-16.05s145.49,31.5,207,6S686,985,686,985s78.72-78.08,131.3-195.93S921,547.14,893.91,441.38c-20.5-79.93-82.83-167.16-173.44-221.07-35.29-21-91.7-38.62-153.16-42.7' dur="3s" repeatCount="indefinite" rotate="auto"/>
    </g>
    <g id="InnerRing4_Dongle2a" transform="rotate(90, 0, 0)">
      <polygon fill="#275779" points="977.5 976 934.2 976 955.85 938.5 977.5 901 999.15 938.5 1020.8 976 977.5 976" transform="translate(-980, -950)"/>
      <animateMotion path='M567.3,177.61c-56.16-3.73-116.52,3.84-168.84,30.48C301.14,257.63,223.55,359.29,171,477.14c-50.14,109.54-54,139.41-69.26,245.63,0,0-109.25,236.15,0,287.42S286,1058,286,1058l111-16.05s145.49,31.5,207,6S686,985,686,985s78.72-78.08,131.3-195.93S921,547.14,893.91,441.38c-20.5-79.93-82.83-167.16-173.44-221.07-35.29-21-91.7-38.62-153.16-42.7' dur="3s" repeatCount="indefinite" rotate="auto"/>
    </g>
    <g id="InnerRing4_Dongle3b" transform="rotate(90, 0, 0)">
      <rect fill="#fff" x="-70" y="-120" width="100" height="100"/>
      <animateMotion path='M481,181.53c-28.49,4.77-56.5,13.3-82.51,26.55C301.14,257.63,223.55,359.29,171,477.14c-50.14,109.54-54,139.41-69.26,245.63,0,0-109.25,236.15,0,287.42S286,1058,286,1058l111-16.05s145.49,31.5,207,6S686,985,686,985s78.72-78.08,131.3-195.93S921,547.14,893.91,441.38c-20.5-79.93-82.83-167.16-173.44-221.07-51.5-30.64-148-54.1-239.49-38.78' dur="3s" repeatCount="indefinite" rotate="auto"/>
    </g>
    <g id="InnerRing4_Dongle3a" transform="rotate(90, 0, 0)">
      <circle stroke-width="21px" stroke="#275779" stroke-miterlimit="10" r="33" transform="translate(-10, -90)" fill="#fff"/>
      <animateMotion path='M481,181.53c-28.49,4.77-56.5,13.3-82.51,26.55C301.14,257.63,223.55,359.29,171,477.14c-50.14,109.54-54,139.41-69.26,245.63,0,0-109.25,236.15,0,287.42S286,1058,286,1058l111-16.05s145.49,31.5,207,6S686,985,686,985s78.72-78.08,131.3-195.93S921,547.14,893.91,441.38c-20.5-79.93-82.83-167.16-173.44-221.07-51.5-30.64-148-54.1-239.49-38.78' dur="3s" repeatCount="indefinite" rotate="auto"/>
    </g>     
  </g>
  <g id="OuterRings">
    <path id="BottomMask" fill="#fff" d="M540,1010.18c-248.17,0-451.43-192.28-468.95-436L25,554,0,546v534H962.43l28.5-102.45L832.54,908.1A468.18,468.18,0,0,1,540,1010.18Z"/>
    <circle id="OuterRing" fill="none" stroke="#275779" stroke-width="38px" cx="540" cy="540" r="470.18"/>
  </g>
  <g id="OuterDongles">

    <g id="OuterArrow">
      <path fill="#fff" d="M364.3,128.61a532.64,532.64,0,0,1,79.15-26.4L430.1,56.41A583.68,583.68,0,0,0,291,111.28l13.7,47A536.7,536.7,0,0,1,364.3,128.61Z" transform="translate(0 0)"/>
      <polygon fill="#275779" points="354.47 118.63 309.07 185.45 273.49 104.98 354.47 118.63"/>
    </g>
    <path id="OuterSpacer" fill="#fff" d="M117,390.67,72.87,378.94A553.29,553.29,0,0,0,47.19,506.56L92,518.47A508.48,508.48,0,0,1,117,390.67Z" transform="translate(0 0)"/>
  
  <animateTransform
            attributeName="transform"
            begin="0s"
            dur="5s"
            type="rotate"
            from="0 540 540"
            to="360 540 540"
            repeatCount="indefinite" 
      />
  </g>

</svg>